<svg width="42" height="42" viewBox="0 0 42 42" fill="none" xmlns="http://www.w3.org/2000/svg">
<path d="M27.9686 20.0831L22.7811 14.8956C22.2797 14.3942 21.4497 14.3942 20.9482 14.8956C20.4467 15.3971 20.4467 16.2271 20.9482 16.7285L23.9224 19.7027H14.948C14.239 19.7027 13.6511 20.2906 13.6511 20.9996C13.6511 21.7085 14.239 22.2965 14.948 22.2965H23.9224L20.9482 25.2706C20.4467 25.7721 20.4467 26.6021 20.9482 27.1035C21.2076 27.3629 21.5361 27.484 21.8647 27.484C22.1932 27.484 22.5217 27.3629 22.7811 27.1035L27.9686 21.916C28.4701 21.4146 28.4701 20.5846 27.9686 20.0831Z" fill="white"/>
</svg>
