<svg width="24" height="25" viewBox="0 0 24 25" fill="none" xmlns="http://www.w3.org/2000/svg">
<path d="M2 8.09082V12.0918H3V18.0908H2V21.0908H18L21 21.0918L22 21.0908V18.0908H21V12.0918H22V8.09082L12 2.09082L2 8.09082ZM6 18.0908V12.0918H8V18.0908H6ZM11 18.0908V12.0918H13V18.0908H11ZM18 18.0908H16V12.0918H18V18.0908ZM14 8.09082C13.9999 8.35353 13.9481 8.61365 13.8475 8.85634C13.7469 9.09903 13.5995 9.31952 13.4137 9.50524C13.2279 9.69096 13.0073 9.83826 12.7646 9.93873C12.5219 10.0392 12.2617 10.0909 11.999 10.0908C11.7363 10.0908 11.4762 10.0389 11.2335 9.93835C10.9908 9.83775 10.7703 9.69034 10.5846 9.50453C10.3989 9.31872 10.2516 9.09815 10.1511 8.85542C10.0506 8.61268 9.99893 8.35253 9.999 8.08982C9.99913 7.55925 10.21 7.05047 10.5853 6.6754C10.9605 6.30033 11.4694 6.08969 12 6.08982C12.5306 6.08995 13.0393 6.30085 13.4144 6.67611C13.7895 7.05137 14.0001 7.56025 14 8.09082Z" fill="black"/>
</svg>
