<svg width="119" height="25" viewBox="0 0 119 25" fill="none" xmlns="http://www.w3.org/2000/svg">
<path d="M2 8.09082V12.0918H3V18.0908H2V21.0908H18L21 21.0918L22 21.0908V18.0908H21V12.0918H22V8.09082L12 2.09082L2 8.09082ZM6 18.0908V12.0918H8V18.0908H6ZM11 18.0908V12.0918H13V18.0908H11ZM18 18.0908H16V12.0918H18V18.0908ZM14 8.09082C13.9999 8.35353 13.9481 8.61365 13.8475 8.85634C13.7469 9.09903 13.5995 9.31952 13.4137 9.50524C13.2279 9.69096 13.0073 9.83826 12.7646 9.93873C12.5219 10.0392 12.2617 10.0909 11.999 10.0908C11.7363 10.0908 11.4762 10.0389 11.2335 9.93835C10.9908 9.83775 10.7703 9.69034 10.5846 9.50453C10.3989 9.31872 10.2516 9.09815 10.1511 8.85542C10.0506 8.61268 9.99893 8.35253 9.999 8.08982C9.99913 7.55925 10.21 7.05047 10.5853 6.6754C10.9605 6.30033 11.4694 6.08969 12 6.08982C12.5306 6.08995 13.0393 6.30085 13.4144 6.67611C13.7895 7.05137 14.0001 7.56025 14 8.09082Z" fill="black"/>
<path d="M29.98 17.5908V7.51082H33.907C34.509 7.51082 35.0223 7.63449 35.447 7.88182C35.8763 8.12915 36.203 8.45582 36.427 8.86182C36.6557 9.26315 36.77 9.69715 36.77 10.1638C36.77 10.7098 36.63 11.1882 36.35 11.5988C36.07 12.0095 35.692 12.2918 35.216 12.4458L35.202 12.1028C35.8507 12.2755 36.3547 12.5928 36.714 13.0548C37.0733 13.5168 37.253 14.0675 37.253 14.7068C37.253 15.2948 37.1317 15.8035 36.889 16.2328C36.651 16.6622 36.3057 16.9958 35.853 17.2338C35.405 17.4718 34.873 17.5908 34.257 17.5908H29.98ZM31.24 16.4008H34.019C34.3923 16.4008 34.726 16.3332 35.02 16.1978C35.314 16.0578 35.545 15.8618 35.713 15.6098C35.8857 15.3578 35.972 15.0545 35.972 14.6998C35.972 14.3592 35.895 14.0535 35.741 13.7828C35.5917 13.5122 35.3793 13.2975 35.104 13.1388C34.8333 12.9755 34.5183 12.8938 34.159 12.8938H31.24V16.4008ZM31.24 11.7178H33.893C34.1917 11.7178 34.46 11.6548 34.698 11.5288C34.9407 11.3982 35.132 11.2162 35.272 10.9828C35.4167 10.7495 35.489 10.4765 35.489 10.1638C35.489 9.72982 35.342 9.37515 35.048 9.09982C34.754 8.82449 34.369 8.68682 33.893 8.68682H31.24V11.7178ZM40.797 17.8008C40.2323 17.8008 39.7586 17.6982 39.376 17.4928C38.998 17.2828 38.711 17.0075 38.515 16.6668C38.3236 16.3262 38.228 15.9528 38.228 15.5468C38.228 15.1502 38.3026 14.8072 38.452 14.5178C38.606 14.2238 38.8206 13.9812 39.096 13.7898C39.3713 13.5938 39.7003 13.4398 40.083 13.3278C40.4423 13.2298 40.8436 13.1458 41.287 13.0758C41.735 13.0012 42.1876 12.9335 42.645 12.8728C43.1023 12.8122 43.5293 12.7538 43.926 12.6978L43.478 12.9568C43.492 12.2848 43.3566 11.7878 43.072 11.4658C42.792 11.1438 42.3066 10.9828 41.616 10.9828C41.1586 10.9828 40.7573 11.0878 40.412 11.2978C40.0713 11.5032 39.831 11.8392 39.691 12.3058L38.508 11.9488C38.69 11.2862 39.0423 10.7658 39.565 10.3878C40.0876 10.0098 40.776 9.82082 41.63 9.82082C42.316 9.82082 42.904 9.94449 43.394 10.1918C43.8886 10.4345 44.2433 10.8032 44.458 11.2978C44.5653 11.5312 44.633 11.7855 44.661 12.0608C44.689 12.3315 44.703 12.6162 44.703 12.9148V17.5908H43.597V15.7778L43.856 15.9458C43.5713 16.5572 43.1723 17.0192 42.659 17.3318C42.1503 17.6445 41.5296 17.8008 40.797 17.8008ZM40.986 16.7578C41.434 16.7578 41.8213 16.6785 42.148 16.5198C42.4793 16.3565 42.7453 16.1442 42.946 15.8828C43.1466 15.6168 43.2773 15.3275 43.338 15.0148C43.408 14.7815 43.4453 14.5225 43.45 14.2378C43.4593 13.9485 43.464 13.7268 43.464 13.5728L43.898 13.7618C43.492 13.8178 43.093 13.8715 42.701 13.9228C42.309 13.9742 41.938 14.0302 41.588 14.0908C41.238 14.1468 40.923 14.2145 40.643 14.2938C40.4376 14.3592 40.244 14.4432 40.062 14.5458C39.8846 14.6485 39.74 14.7815 39.628 14.9448C39.5206 15.1035 39.467 15.3018 39.467 15.5398C39.467 15.7452 39.5183 15.9412 39.621 16.1278C39.7283 16.3145 39.8916 16.4662 40.111 16.5828C40.335 16.6995 40.6266 16.7578 40.986 16.7578ZM51.906 17.5908V13.8038C51.906 13.4445 51.8733 13.0992 51.808 12.7678C51.7473 12.4365 51.6376 12.1402 51.479 11.8788C51.325 11.6128 51.115 11.4028 50.849 11.2488C50.5876 11.0948 50.2563 11.0178 49.855 11.0178C49.5423 11.0178 49.2576 11.0715 49.001 11.1788C48.749 11.2815 48.532 11.4402 48.35 11.6548C48.168 11.8695 48.0256 12.1402 47.923 12.4668C47.825 12.7888 47.776 13.1692 47.776 13.6078L46.957 13.3558C46.957 12.6232 47.0876 11.9955 47.349 11.4728C47.615 10.9455 47.986 10.5418 48.462 10.2618C48.9426 9.97715 49.5073 9.83482 50.156 9.83482C50.646 9.83482 51.0636 9.91182 51.409 10.0658C51.7543 10.2198 52.0413 10.4252 52.27 10.6818C52.4986 10.9338 52.6783 11.2185 52.809 11.5358C52.9396 11.8485 53.0306 12.1682 53.082 12.4948C53.138 12.8168 53.166 13.1225 53.166 13.4118V17.5908H51.906ZM46.516 17.5908V10.0308H47.636V12.0538H47.776V17.5908H46.516ZM54.9789 17.5908L54.9859 7.51082H56.2459V13.6708L59.4169 10.0308H61.0339L57.6949 13.8108L61.4259 17.5908H59.6829L56.2459 13.9508V17.5908H54.9789ZM67.5223 17.5908V8.69382H64.0853V7.51082H72.2053V8.69382H68.7683V17.5908H67.5223ZM72.6226 17.5908V10.0308H73.7356V11.8578L73.5536 11.6198C73.6422 11.3865 73.7566 11.1718 73.8966 10.9758C74.0412 10.7798 74.2022 10.6188 74.3796 10.4928C74.5756 10.3342 74.7972 10.2128 75.0446 10.1288C75.2919 10.0448 75.5439 9.99582 75.8006 9.98182C76.0572 9.96315 76.2976 9.97949 76.5216 10.0308V11.1998C76.2602 11.1298 75.9732 11.1112 75.6606 11.1438C75.3479 11.1765 75.0586 11.2908 74.7926 11.4868C74.5499 11.6595 74.3609 11.8695 74.2256 12.1168C74.0949 12.3642 74.0039 12.6325 73.9526 12.9218C73.9012 13.2065 73.8756 13.4982 73.8756 13.7968V17.5908H72.6226ZM79.7481 17.8008C79.1835 17.8008 78.7098 17.6982 78.3271 17.4928C77.9491 17.2828 77.6621 17.0075 77.4661 16.6668C77.2748 16.3262 77.1791 15.9528 77.1791 15.5468C77.1791 15.1502 77.2538 14.8072 77.4031 14.5178C77.5571 14.2238 77.7718 13.9812 78.0471 13.7898C78.3225 13.5938 78.6515 13.4398 79.0341 13.3278C79.3935 13.2298 79.7948 13.1458 80.2381 13.0758C80.6861 13.0012 81.1388 12.9335 81.5961 12.8728C82.0535 12.8122 82.4805 12.7538 82.8771 12.6978L82.4291 12.9568C82.4431 12.2848 82.3078 11.7878 82.0231 11.4658C81.7431 11.1438 81.2578 10.9828 80.5671 10.9828C80.1098 10.9828 79.7085 11.0878 79.3631 11.2978C79.0225 11.5032 78.7821 11.8392 78.6421 12.3058L77.4591 11.9488C77.6411 11.2862 77.9935 10.7658 78.5161 10.3878C79.0388 10.0098 79.7271 9.82082 80.5811 9.82082C81.2671 9.82082 81.8551 9.94449 82.3451 10.1918C82.8398 10.4345 83.1945 10.8032 83.4091 11.2978C83.5165 11.5312 83.5841 11.7855 83.6121 12.0608C83.6401 12.3315 83.6541 12.6162 83.6541 12.9148V17.5908H82.5481V15.7778L82.8071 15.9458C82.5225 16.5572 82.1235 17.0192 81.6101 17.3318C81.1015 17.6445 80.4808 17.8008 79.7481 17.8008ZM79.9371 16.7578C80.3851 16.7578 80.7725 16.6785 81.0991 16.5198C81.4305 16.3565 81.6965 16.1442 81.8971 15.8828C82.0978 15.6168 82.2285 15.3275 82.2891 15.0148C82.3591 14.7815 82.3965 14.5225 82.4011 14.2378C82.4105 13.9485 82.4151 13.7268 82.4151 13.5728L82.8491 13.7618C82.4431 13.8178 82.0441 13.8715 81.6521 13.9228C81.2601 13.9742 80.8891 14.0302 80.5391 14.0908C80.1891 14.1468 79.8741 14.2145 79.5941 14.2938C79.3888 14.3592 79.1951 14.4432 79.0131 14.5458C78.8358 14.6485 78.6911 14.7815 78.5791 14.9448C78.4718 15.1035 78.4181 15.3018 78.4181 15.5398C78.4181 15.7452 78.4695 15.9412 78.5721 16.1278C78.6795 16.3145 78.8428 16.4662 79.0621 16.5828C79.2861 16.6995 79.5778 16.7578 79.9371 16.7578ZM90.8571 17.5908V13.8038C90.8571 13.4445 90.8245 13.0992 90.7591 12.7678C90.6985 12.4365 90.5888 12.1402 90.4301 11.8788C90.2761 11.6128 90.0661 11.4028 89.8001 11.2488C89.5388 11.0948 89.2075 11.0178 88.8061 11.0178C88.4935 11.0178 88.2088 11.0715 87.9521 11.1788C87.7001 11.2815 87.4831 11.4402 87.3011 11.6548C87.1191 11.8695 86.9768 12.1402 86.8741 12.4668C86.7761 12.7888 86.7271 13.1692 86.7271 13.6078L85.9081 13.3558C85.9081 12.6232 86.0388 11.9955 86.3001 11.4728C86.5661 10.9455 86.9371 10.5418 87.4131 10.2618C87.8938 9.97715 88.4585 9.83482 89.1071 9.83482C89.5971 9.83482 90.0148 9.91182 90.3601 10.0658C90.7055 10.2198 90.9925 10.4252 91.2211 10.6818C91.4498 10.9338 91.6295 11.2185 91.7601 11.5358C91.8908 11.8485 91.9818 12.1682 92.0331 12.4948C92.0891 12.8168 92.1171 13.1225 92.1171 13.4118V17.5908H90.8571ZM85.4671 17.5908V10.0308H86.5871V12.0538H86.7271V17.5908H85.4671ZM96.793 17.7938C95.8924 17.7938 95.1527 17.5978 94.574 17.2058C94 16.8092 93.6477 16.2562 93.517 15.5468L94.791 15.3438C94.8937 15.7545 95.1294 16.0812 95.498 16.3238C95.8667 16.5618 96.324 16.6808 96.87 16.6808C97.388 16.6808 97.794 16.5735 98.088 16.3588C98.382 16.1442 98.529 15.8525 98.529 15.4838C98.529 15.2692 98.48 15.0965 98.382 14.9658C98.284 14.8305 98.081 14.7045 97.773 14.5878C97.4697 14.4712 97.01 14.3312 96.394 14.1678C95.7267 13.9905 95.2017 13.8062 94.819 13.6148C94.4364 13.4235 94.1634 13.2018 94 12.9498C93.8367 12.6978 93.755 12.3922 93.755 12.0328C93.755 11.5895 93.8764 11.2022 94.119 10.8708C94.3617 10.5348 94.7 10.2758 95.134 10.0938C95.5727 9.91182 96.0814 9.82082 96.66 9.82082C97.234 9.82082 97.7474 9.91182 98.2 10.0938C98.6527 10.2758 99.0167 10.5348 99.292 10.8708C99.572 11.2022 99.7377 11.5895 99.789 12.0328L98.515 12.2638C98.4544 11.8578 98.2584 11.5382 97.927 11.3048C97.6004 11.0715 97.178 10.9478 96.66 10.9338C96.17 10.9152 95.771 11.0015 95.463 11.1928C95.1597 11.3842 95.008 11.6432 95.008 11.9698C95.008 12.1518 95.064 12.3082 95.176 12.4388C95.2927 12.5695 95.505 12.6932 95.813 12.8098C96.1257 12.9265 96.5784 13.0595 97.171 13.2088C97.8384 13.3768 98.3634 13.5612 98.746 13.7618C99.1334 13.9578 99.4087 14.1912 99.572 14.4618C99.7354 14.7278 99.817 15.0568 99.817 15.4488C99.817 16.1768 99.5487 16.7508 99.012 17.1708C98.4754 17.5862 97.7357 17.7938 96.793 17.7938ZM102.082 17.5908V9.61782C102.082 9.42182 102.091 9.22349 102.11 9.02282C102.129 8.81749 102.171 8.61915 102.236 8.42782C102.301 8.23182 102.409 8.05215 102.558 7.88882C102.731 7.69749 102.92 7.56215 103.125 7.48282C103.33 7.39882 103.538 7.34749 103.748 7.32882C103.963 7.31015 104.166 7.30082 104.357 7.30082H105.316V8.33682H104.427C104.058 8.33682 103.783 8.42782 103.601 8.60982C103.419 8.78715 103.328 9.05782 103.328 9.42182V17.5908H102.082ZM100.801 11.0598V10.0308H105.316V11.0598H100.801ZM109.436 17.8008C108.694 17.8008 108.045 17.6375 107.49 17.3108C106.939 16.9795 106.51 16.5198 106.202 15.9318C105.894 15.3392 105.74 14.6485 105.74 13.8598C105.74 13.0338 105.891 12.3198 106.195 11.7178C106.498 11.1112 106.92 10.6445 107.462 10.3178C108.008 9.98649 108.647 9.82082 109.38 9.82082C110.14 9.82082 110.787 9.99582 111.319 10.3458C111.855 10.6958 112.257 11.1952 112.523 11.8438C112.793 12.4925 112.91 13.2648 112.873 14.1608H111.613V13.7128C111.599 12.7842 111.41 12.0912 111.046 11.6338C110.682 11.1718 110.14 10.9408 109.422 10.9408C108.652 10.9408 108.066 11.1882 107.665 11.6828C107.263 12.1775 107.063 12.8868 107.063 13.8108C107.063 14.7022 107.263 15.3928 107.665 15.8828C108.066 16.3728 108.638 16.6178 109.38 16.6178C109.879 16.6178 110.313 16.5035 110.682 16.2748C111.05 16.0462 111.34 15.7172 111.55 15.2878L112.747 15.7008C112.453 16.3682 112.009 16.8862 111.417 17.2548C110.829 17.6188 110.168 17.8008 109.436 17.8008ZM106.643 14.1608V13.1598H112.229V14.1608H106.643ZM114.431 17.5908V10.0308H115.544V11.8578L115.362 11.6198C115.451 11.3865 115.565 11.1718 115.705 10.9758C115.85 10.7798 116.011 10.6188 116.188 10.4928C116.384 10.3342 116.606 10.2128 116.853 10.1288C117.101 10.0448 117.353 9.99582 117.609 9.98182C117.866 9.96315 118.106 9.97949 118.33 10.0308V11.1998C118.069 11.1298 117.782 11.1112 117.469 11.1438C117.157 11.1765 116.867 11.2908 116.601 11.4868C116.359 11.6595 116.17 11.8695 116.034 12.1168C115.904 12.3642 115.813 12.6325 115.761 12.9218C115.71 13.2065 115.684 13.4982 115.684 13.7968V17.5908H114.431Z" fill="black"/>
</svg>
