<svg width="10" height="10" viewBox="0 0 10 10" fill="none" xmlns="http://www.w3.org/2000/svg">
<path d="M6.32495 5.00019L9.19995 2.12519C9.56245 1.76269 9.56245 1.1627 9.19995 0.800195C8.83745 0.437695 8.23745 0.437695 7.87495 0.800195L4.99995 3.67519L2.12495 0.800195C1.76245 0.437695 1.16245 0.437695 0.799951 0.800195C0.437451 1.1627 0.437451 1.76269 0.799951 2.12519L3.67495 5.00019L0.799951 7.8752C0.437451 8.2377 0.437451 8.83769 0.799951 9.20019C0.987451 9.38769 1.22495 9.4752 1.46245 9.4752C1.69995 9.4752 1.93745 9.38769 2.12495 9.20019L4.99995 6.3252L7.87495 9.20019C8.06245 9.38769 8.29995 9.4752 8.53745 9.4752C8.77495 9.4752 9.01245 9.38769 9.19995 9.20019C9.56245 8.83769 9.56245 8.2377 9.19995 7.8752L6.32495 5.00019Z" fill="black"/>
</svg>
