<svg width="25" height="24" viewBox="0 0 25 24" fill="none" xmlns="http://www.w3.org/2000/svg">
<path d="M17.34 7.41L7.05996 17.69C6.57996 18.17 5.75996 18.06 5.46996 17.45C4.94996 16.38 4.64996 15.17 4.64996 13.9C4.62996 8.38 10.23 3.66 12.13 2.21C12.5 1.93 13 1.93 13.36 2.21C14.23 2.87 15.86 4.24 17.39 6.04C17.73 6.44 17.71 7.04 17.34 7.41Z" fill="#9D9E9F"/>
<path opacity="0.4" d="M20.85 13.9103C20.85 18.3703 17.22 22.0003 12.75 22.0003C10.96 22.0003 9.28996 21.4203 7.93996 20.4203C7.44996 20.0603 7.40996 19.3403 7.83996 18.9103L17.91 8.84026C18.38 8.37026 19.17 8.47026 19.49 9.05026C20.31 10.5603 20.86 12.2003 20.85 13.9103Z" fill="#9D9E9F"/>
</svg>
