<svg width="18" height="16" viewBox="0 0 18 16" fill="none" xmlns="http://www.w3.org/2000/svg">
<path d="M13.1667 0.916992H4.83342C2.33341 0.916992 0.666748 2.16699 0.666748 5.08366V10.917C0.666748 13.8337 2.33341 15.0837 4.83342 15.0837H13.1667C15.6667 15.0837 17.3334 13.8337 17.3334 10.917V5.08366C17.3334 2.16699 15.6667 0.916992 13.1667 0.916992ZM13.5584 5.99199L10.9501 8.07533C10.4001 8.51699 9.70008 8.73366 9.00008 8.73366C8.30008 8.73366 7.59175 8.51699 7.05008 8.07533L4.44175 5.99199C4.17508 5.77533 4.13341 5.37533 4.34175 5.10866C4.55841 4.84199 4.95008 4.79199 5.21675 5.00866L7.82508 7.09199C8.45842 7.60033 9.53341 7.60033 10.1667 7.09199L12.7751 5.00866C13.0417 4.79199 13.4417 4.83366 13.6501 5.10866C13.8667 5.37533 13.8251 5.77533 13.5584 5.99199Z" fill="#9D9E9F"/>
</svg>
