<svg width="56" height="56" viewBox="0 0 56 56" fill="none" xmlns="http://www.w3.org/2000/svg">
<path d="M28 3.5C34.4978 3.5 40.7295 6.08124 45.3241 10.6759C49.9188 15.2705 52.5 21.5022 52.5 28C52.5 34.4978 49.9188 40.7295 45.3241 45.3241C40.7295 49.9188 34.4978 52.5 28 52.5C21.5022 52.5 15.2705 49.9188 10.6759 45.3241C6.08124 40.7295 3.5 34.4978 3.5 28C3.5 21.5022 6.08124 15.2705 10.6759 10.6759C15.2705 6.08124 21.5022 3.5 28 3.5ZM24.948 32.8335L19.5055 27.3875C19.3104 27.1924 19.0788 27.0376 18.8238 26.932C18.5689 26.8264 18.2957 26.7721 18.0197 26.7721C17.7438 26.7721 17.4706 26.8264 17.2157 26.932C16.9607 27.0376 16.7291 27.1924 16.534 27.3875C16.14 27.7815 15.9186 28.316 15.9186 28.8733C15.9186 29.4305 16.14 29.965 16.534 30.359L23.464 37.289C23.6586 37.4851 23.89 37.6407 24.145 37.747C24.4 37.8532 24.6735 37.9079 24.9497 37.9079C25.226 37.9079 25.4995 37.8532 25.7545 37.747C26.0095 37.6407 26.2409 37.4851 26.4355 37.289L40.7855 22.9355C40.9832 22.7412 41.1405 22.5097 41.2483 22.2543C41.3561 21.9989 41.4123 21.7247 41.4135 21.4475C41.4148 21.1703 41.3612 20.8955 41.2558 20.6391C41.1504 20.3828 40.9953 20.1498 40.7994 19.9536C40.6035 19.7575 40.3707 19.6021 40.1144 19.4964C39.8581 19.3907 39.5835 19.3367 39.3063 19.3377C39.0291 19.3387 38.7548 19.3945 38.4993 19.502C38.2437 19.6095 38.012 19.7665 37.8175 19.964L24.948 32.8335Z" fill="#27DA42"/>
</svg>
