<svg width="14" height="14" viewBox="0 0 14 14" fill="none" xmlns="http://www.w3.org/2000/svg">
<path d="M6.75001 7.54688C8.06168 7.54688 9.25457 7.9268 10.1321 8.46166C10.5701 8.7299 10.9445 9.04469 11.215 9.38684C11.481 9.72407 11.677 10.127 11.677 10.5578C11.677 11.0204 11.452 11.385 11.1279 11.6451C10.8214 11.8914 10.4168 12.0545 9.98705 12.1684C9.12318 12.3967 7.97026 12.4739 6.75001 12.4739C5.52975 12.4739 4.37683 12.3972 3.51296 12.1684C3.08322 12.0545 2.67865 11.8914 2.37209 11.6451C2.04745 11.3845 1.823 11.0204 1.823 10.5578C1.823 10.127 2.01898 9.72407 2.28504 9.38684C2.55548 9.04469 2.92939 8.7299 3.36789 8.46166C4.24544 7.9268 5.43887 7.54688 6.75001 7.54688Z" fill="#7094F4"/>
<path opacity="0.3" d="M6.74991 1.52539C8.85703 1.52539 10.1742 3.8066 9.12035 5.63123C8.88011 6.04733 8.53458 6.39287 8.11848 6.63311C7.70239 6.87335 7.23038 6.99983 6.74991 6.99984C4.64279 6.99984 3.32564 4.71864 4.37947 2.894C4.61971 2.4779 4.96524 2.13237 5.38134 1.89213C5.79743 1.65189 6.26944 1.5254 6.74991 1.52539Z" fill="#7094F4"/>
</svg>
