<svg width="150" height="28" viewBox="0 0 150 28" fill="none" xmlns="http://www.w3.org/2000/svg">
<path d="M141.412 11.3757L144.618 19.128H144.656L147.787 11.3757H150L143.249 26.9365H141.149L143.662 21.4931L139.218 11.3757H141.412ZM134.136 11.0191C135.636 11.0191 136.817 11.4133 137.68 12.2204C138.543 13.0275 138.974 14.1162 138.974 15.524V22.1876H137.042V20.6859H136.949C136.105 21.9248 134.998 22.5442 133.61 22.5442C132.429 22.5442 131.435 22.1876 130.629 21.493C129.822 20.7798 129.428 19.8976 129.428 18.8464C129.428 17.739 129.841 16.838 130.704 16.181C131.548 15.524 132.673 15.1861 134.079 15.1861C135.279 15.1861 136.273 15.4114 137.061 15.8431V15.3738C137.061 14.6606 136.78 14.0787 136.217 13.5719C135.655 13.0838 134.998 12.8398 134.248 12.8398C133.123 12.8398 132.223 13.3091 131.566 14.2664L129.785 13.1402C130.76 11.7324 132.223 11.0191 134.136 11.0191ZM123.897 6.38281C125.266 6.38281 126.428 6.83331 127.385 7.75308C128.36 8.67282 128.828 9.78026 128.828 11.0754C128.828 12.4082 128.341 13.5344 127.385 14.4166C126.447 15.3176 125.285 15.7681 123.897 15.7681H120.559V22.1688H118.533V6.38281H123.897ZM134.398 16.7816C133.573 16.7816 132.898 16.9881 132.335 17.3823C131.791 17.7952 131.51 18.2833 131.51 18.8652C131.51 19.3908 131.735 19.8412 132.185 20.1791C132.635 20.5357 133.16 20.7047 133.76 20.7047C134.604 20.7047 135.373 20.3856 136.048 19.7661C136.723 19.128 137.042 18.3959 137.042 17.5325C136.405 17.0256 135.523 16.7816 134.398 16.7816ZM123.953 8.35373H120.559V13.8535H123.953C124.76 13.8535 125.435 13.5907 125.96 13.0463C126.503 12.502 126.766 11.8638 126.766 11.113C126.766 10.381 126.503 9.74272 125.96 9.1984C125.435 8.63529 124.76 8.35373 123.953 8.35373Z" fill="black"/>
<path d="M89.9167 11.0376C91.2856 11.0376 92.3734 11.6383 92.9363 12.314H93.0295V11.3755H95.4302V21.6993C95.4302 25.9414 92.9363 27.6871 89.9734 27.6871C87.1978 27.6871 85.5288 25.8101 84.891 24.2897L87.0856 23.3699C87.4789 24.3084 88.4356 25.4159 89.9734 25.4159C91.8674 25.4159 93.0295 24.2334 93.0295 22.0372V21.2113H92.9363C92.3734 21.9058 91.2856 22.5252 89.9167 22.5252C87.0478 22.5252 84.4228 20.0287 84.4228 16.8002C84.4228 13.5529 87.0478 11.0376 89.9167 11.0376ZM106.419 11.0564C109.401 11.0564 110.845 13.4216 111.332 14.7167L111.595 15.3737L103.925 18.5459C104.507 19.691 105.425 20.2916 106.7 20.2916C107.976 20.2541 108.876 19.6346 109.532 18.6773L111.482 19.9912C110.845 20.9298 109.326 22.5441 106.7 22.5441C103.438 22.5441 101.019 20.0288 101.019 16.8003C101.019 13.384 103.475 11.0564 106.419 11.0564ZM50.2759 4.69336C52.9949 4.69336 54.9264 5.76328 56.3703 7.15229L54.6451 8.87918C53.595 7.90316 52.1886 7.13356 50.2571 7.13356C46.6754 7.13356 43.8626 10.0242 43.8626 13.6094C43.8626 17.1945 46.6567 20.0853 50.2571 20.0853C52.5824 20.0853 53.9138 19.1467 54.7576 18.302C55.4515 17.6075 55.9016 16.6127 56.0891 15.2424H50.2009V12.8023H58.4518C58.5456 13.234 58.5831 13.7596 58.5831 14.3227C58.5831 16.1434 58.0768 18.4146 56.4828 20.0289C54.9076 21.6619 52.9199 22.5254 50.2759 22.5254C45.3628 22.5254 41.2373 18.5272 41.2373 13.6094C41.2373 8.6915 45.3628 4.69336 50.2759 4.69336ZM65.1847 11.0376C68.3539 11.0376 70.9417 13.4591 70.9417 16.7814C70.9417 20.0851 68.3539 22.5252 65.1847 22.5252C62.0155 22.5252 59.4277 20.0851 59.4277 16.7814C59.4277 13.4591 62.0155 11.0376 65.1847 11.0376ZM77.7106 11.0376C80.8795 11.0376 83.4674 13.4591 83.4674 16.7814C83.4674 20.0851 80.8795 22.5252 77.7106 22.5252C74.541 22.5252 71.9532 20.0851 71.9532 16.7814C71.9532 13.4591 74.541 11.0376 77.7106 11.0376ZM99.7626 5.29407V22.1688H97.2498V5.29407H99.7626ZM65.2034 13.3089C63.4782 13.3089 61.978 14.7167 61.978 16.7814C61.978 18.8274 63.4782 20.254 65.2034 20.254C66.9286 20.254 68.4289 18.8274 68.4289 16.7814C68.4289 14.7167 66.9286 13.3089 65.2034 13.3089ZM77.7106 13.3089C75.9849 13.3089 74.4849 14.7167 74.4849 16.7814C74.4849 18.8274 75.9849 20.254 77.7106 20.254C79.4356 20.254 80.9356 18.8274 80.9356 16.7814C80.9356 14.7167 79.4356 13.3089 77.7106 13.3089ZM90.1606 13.2901C88.4167 13.2901 86.9728 14.773 86.9728 16.8002C86.9728 18.8087 88.4356 20.254 90.1606 20.254C91.8674 20.254 93.2174 18.8087 93.2174 16.8002C93.2174 14.773 91.8674 13.2901 90.1606 13.2901ZM106.494 13.2526C105.219 13.2526 103.438 14.3976 103.513 16.6125L108.632 14.4727C108.351 13.7594 107.507 13.2526 106.494 13.2526Z" fill="black"/>
<path d="M27.9384 5.56612C24.9042 3.81295 21.0244 4.85471 19.2711 7.89182L14.8512 15.5558C13.5723 17.7689 15.2187 18.5422 17.0546 19.644L21.3075 22.1011C22.7478 22.9327 24.5873 22.439 25.4181 20.9993L29.9617 13.1231C31.4882 10.4765 30.5824 7.09408 27.9384 5.56612Z" fill="#EA4335"/>
<path d="M22.9372 8.73917L18.6842 6.28213C16.3365 4.97758 15.0069 4.89123 14.043 6.42479L7.77046 17.2986C6.01898 20.3338 7.06161 24.2156 10.0938 25.965C12.7379 27.4929 16.1171 26.5863 17.6435 23.9396L24.0361 12.8556C24.8706 11.414 24.3774 9.57073 22.9372 8.73917Z" fill="#FBBC04"/>
<path d="M23.7558 3.14857L20.7686 1.42168C17.4644 -0.48729 13.2396 0.644576 11.3325 3.95195L5.64491 13.8121C4.80481 15.2669 5.30362 17.1289 6.75694 17.9679L10.1024 19.9013C11.7544 20.8568 13.8659 20.2899 14.8204 18.6362L21.318 7.37198C22.6644 5.03877 25.6442 4.23915 27.9751 5.58688L23.7558 3.14857Z" fill="#34A853"/>
<path d="M12.1405 6.77299L8.91134 4.91095C7.47114 4.08129 5.63157 4.57308 4.80084 6.01091L0.926636 12.712C-0.980472 16.01 0.150289 20.2297 3.45443 22.133L5.91285 23.5501L8.89445 25.2695L10.1884 26.0147C7.8912 24.4756 7.16174 21.3915 8.56627 18.9626L9.56951 17.2282L13.2431 10.8744C14.0719 9.44032 13.5788 7.60265 12.1405 6.77299Z" fill="#4285F4"/>
</svg>
