<svg width="50" height="50" viewBox="0 0 50 50" fill="none" xmlns="http://www.w3.org/2000/svg">
<path d="M25 27.0518C29.9188 27.0518 34.3921 28.4765 37.6829 30.4822C39.3252 31.4881 40.7294 32.6685 41.7436 33.9516C42.7413 35.2162 43.4762 36.7272 43.4762 38.3428C43.4762 40.0775 42.6325 41.4448 41.4172 42.4199C40.2675 43.3437 38.7504 43.9555 37.1389 44.3825C33.8994 45.2386 29.5759 45.528 25 45.528C20.424 45.528 16.1006 45.2406 12.861 44.3825C11.2495 43.9555 9.73239 43.3437 8.58276 42.4199C7.36538 41.4427 6.52368 40.0775 6.52368 38.3428C6.52368 36.7272 7.25863 35.2162 8.25635 33.9516C9.27049 32.6685 10.6726 31.4881 12.317 30.4822C15.6079 28.4765 20.0832 27.0518 25 27.0518Z" fill="#DEDEDE"/>
<path opacity="0.3" d="M25.0001 4.46973C32.9018 4.46973 37.8411 13.0242 33.8892 19.8666C32.9883 21.427 31.6926 22.7228 30.1322 23.6237C28.5719 24.5246 26.8019 24.9989 25.0001 24.9989C17.0984 24.9989 12.1591 16.4444 16.1109 9.60203C17.0118 8.04165 18.3076 6.74589 19.8679 5.84499C21.4283 4.94408 23.1983 4.46977 25.0001 4.46973Z" fill="#DEDEDE"/>
</svg>
