<svg width="36" height="36" viewBox="0 0 36 36" fill="none" xmlns="http://www.w3.org/2000/svg">
<rect x="0.5" y="0.5" width="35" height="35" rx="17.5" fill="#7094F4"/>
<rect x="0.5" y="0.5" width="35" height="35" rx="17.5" stroke="white"/>
<path opacity="0.4" d="M14.9433 23.8337H21.0567C22.6667 23.8337 23.3083 22.8478 23.3842 21.6462L23.6875 16.8278C23.7692 15.5678 22.7658 14.5003 21.5 14.5003C21.1442 14.5003 20.8175 14.2962 20.6542 13.9812L20.2342 13.1353C19.9658 12.6045 19.2658 12.167 18.6708 12.167H17.335C16.7342 12.167 16.0342 12.6045 15.7658 13.1353L15.3458 13.9812C15.1825 14.2962 14.8558 14.5003 14.5 14.5003C13.2342 14.5003 12.2308 15.5678 12.3125 16.8278L12.6158 21.6462C12.6858 22.8478 13.3333 23.8337 14.9433 23.8337Z" fill="white"/>
<path d="M18.875 16.1045H17.125C16.8858 16.1045 16.6875 15.9062 16.6875 15.667C16.6875 15.4278 16.8858 15.2295 17.125 15.2295H18.875C19.1142 15.2295 19.3125 15.4278 19.3125 15.667C19.3125 15.9062 19.1142 16.1045 18.875 16.1045Z" fill="white"/>
<path d="M18 21.5761C19.0889 21.5761 19.9717 20.6934 19.9717 19.6045C19.9717 18.5156 19.0889 17.6328 18 17.6328C16.9111 17.6328 16.0283 18.5156 16.0283 19.6045C16.0283 20.6934 16.9111 21.5761 18 21.5761Z" fill="white"/>
</svg>
