<svg width="25" height="24" viewBox="0 0 25 24" fill="none" xmlns="http://www.w3.org/2000/svg">
<path opacity="0.4" d="M20.29 6.81969L14.53 2.78969C12.96 1.68969 10.55 1.74969 9.03999 2.91969L4.02999 6.82969C3.02999 7.60969 2.23999 9.20969 2.23999 10.4697V17.3697C2.23999 19.9197 4.30999 21.9997 6.85999 21.9997H17.64C20.19 21.9997 22.26 19.9297 22.26 17.3797V10.5997C22.26 9.24969 21.39 7.58969 20.29 6.81969Z" fill="#9D9E9F"/>
<path d="M12.25 18.75C11.84 18.75 11.5 18.41 11.5 18V15C11.5 14.59 11.84 14.25 12.25 14.25C12.66 14.25 13 14.59 13 15V18C13 18.41 12.66 18.75 12.25 18.75Z" fill="#9D9E9F"/>
</svg>
