<svg width="18" height="19" viewBox="0 0 18 19" fill="none" xmlns="http://www.w3.org/2000/svg">
<path opacity="0.4" d="M9 17.1816C13.1421 17.1816 16.5 13.8238 16.5 9.68164C16.5 5.53951 13.1421 2.18164 9 2.18164C4.85786 2.18164 1.5 5.53951 1.5 9.68164C1.5 13.8238 4.85786 17.1816 9 17.1816Z" fill="#7094F4"/>
<path d="M9.79502 9.68117L11.52 7.95617C11.7375 7.73867 11.7375 7.37867 11.52 7.16117C11.3025 6.94367 10.9425 6.94367 10.725 7.16117L9.00002 8.88617L7.27502 7.16117C7.05752 6.94367 6.69752 6.94367 6.48002 7.16117C6.26252 7.37867 6.26252 7.73867 6.48002 7.95617L8.20502 9.68117L6.48002 11.4062C6.26252 11.6237 6.26252 11.9837 6.48002 12.2012C6.59252 12.3137 6.73502 12.3662 6.87752 12.3662C7.02002 12.3662 7.16252 12.3137 7.27502 12.2012L9.00002 10.4762L10.725 12.2012C10.8375 12.3137 10.98 12.3662 11.1225 12.3662C11.265 12.3662 11.4075 12.3137 11.52 12.2012C11.7375 11.9837 11.7375 11.6237 11.52 11.4062L9.79502 9.68117Z" fill="#7094F4"/>
</svg>
