<svg width="20" height="21" viewBox="0 0 20 21" fill="none" xmlns="http://www.w3.org/2000/svg">
<path d="M8.44067 7.68122V13.3004C8.44716 13.7113 8.61495 14.1031 8.90782 14.3914C9.20069 14.6797 9.59516 14.8413 10.0061 14.8413C10.417 14.8413 10.8115 14.6797 11.1044 14.3914C11.3973 14.1031 11.565 13.7113 11.5715 13.3004L11.5766 5.93513C11.5809 5.58393 11.5154 5.23537 11.3839 4.90968C11.2525 4.58398 11.0577 4.28761 10.8108 4.03775C10.564 3.7879 10.27 3.58952 9.94594 3.45413C9.62186 3.31874 9.27413 3.24902 8.9229 3.24902C8.57168 3.24902 8.22394 3.31874 7.89986 3.45413C7.57578 3.58952 7.2818 3.7879 7.03496 4.03775C6.78811 4.28761 6.59332 4.58398 6.46187 4.90968C6.33042 5.23537 6.26493 5.58393 6.26919 5.93513V13.35C6.26203 13.8444 6.35324 14.3353 6.5375 14.7942C6.72176 15.2531 6.99541 15.6707 7.34252 16.0229C7.68964 16.3751 8.1033 16.6547 8.55946 16.8456C9.01562 17.0365 9.50517 17.1348 9.99966 17.1348C10.4941 17.1348 10.9837 17.0365 11.4399 16.8456C11.896 16.6547 12.3097 16.3751 12.6568 16.0229C13.0039 15.6707 13.2776 15.2531 13.4618 14.7942C13.6461 14.3353 13.7373 13.8444 13.7301 13.35V6.42106" stroke="#7094F4" stroke-miterlimit="10" stroke-linecap="round"/>
</svg>
