<svg width="18" height="19" viewBox="0 0 18 19" fill="none" xmlns="http://www.w3.org/2000/svg">
<path d="M9 6.3125C7.5825 6.3125 7.3125 6.905 7.3125 8V8.465H10.6875V8C10.6875 6.905 10.4175 6.3125 9 6.3125Z" fill="#A1A1A2"/>
<path d="M9.00005 11.8248C9.45568 11.8248 9.82505 11.4554 9.82505 10.9998C9.82505 10.5442 9.45568 10.1748 9.00005 10.1748C8.54441 10.1748 8.17505 10.5442 8.17505 10.9998C8.17505 11.4554 8.54441 11.8248 9.00005 11.8248Z" fill="#A1A1A2"/>
<path d="M9 2C4.86 2 1.5 5.36 1.5 9.5C1.5 13.64 4.86 17 9 17C13.14 17 16.5 13.64 16.5 9.5C16.5 5.36 13.14 2 9 2ZM13.035 11.375C13.035 13.025 12.525 13.535 10.875 13.535H7.125C5.475 13.535 4.965 13.025 4.965 11.375V10.625C4.965 9.3425 5.2725 8.75 6.1875 8.5475V8C6.1875 7.3025 6.1875 5.1875 9 5.1875C11.8125 5.1875 11.8125 7.3025 11.8125 8V8.5475C12.7275 8.75 13.035 9.3425 13.035 10.625V11.375Z" fill="#A1A1A2"/>
</svg>
