<svg width="20" height="20" viewBox="0 0 20 20" fill="none" xmlns="http://www.w3.org/2000/svg">
<path d="M15.6667 8.25879C14.7251 8.25879 13.8834 8.71712 13.3584 9.41712C12.8334 8.71712 11.9917 8.25879 11.0501 8.25879C9.45841 8.25879 8.16675 9.55879 8.16675 11.1588C8.16675 11.7755 8.26675 12.3505 8.43341 12.8755C9.25008 15.4671 11.7834 17.0255 13.0334 17.4505C13.2084 17.5088 13.5001 17.5088 13.6751 17.4505C14.9251 17.0255 17.4584 15.4755 18.2751 12.8755C18.4501 12.3421 18.5417 11.7755 18.5417 11.1588C18.5501 9.55879 17.2584 8.25879 15.6667 8.25879Z" fill="black"/>
<path d="M17.2917 6.94967C17.2917 7.14134 17.1001 7.26634 16.9167 7.21634C15.7917 6.92467 14.5584 7.16634 13.6251 7.83301C13.4417 7.96634 13.1917 7.96634 13.0167 7.83301C12.3584 7.34967 11.5584 7.08301 10.7167 7.08301C8.56675 7.08301 6.81675 8.84134 6.81675 11.008C6.81675 13.358 7.94175 15.1163 9.07508 16.2913C9.13341 16.3497 9.08341 16.4497 9.00841 16.4163C6.73341 15.6413 1.66675 12.4247 1.66675 6.94967C1.66675 4.53301 3.60841 2.58301 6.00841 2.58301C7.43341 2.58301 8.69175 3.26634 9.48341 4.32467C10.2834 3.26634 11.5417 2.58301 12.9584 2.58301C15.3501 2.58301 17.2917 4.53301 17.2917 6.94967Z" fill="black"/>
</svg>
