<svg width="20" height="20" viewBox="0 0 20 20" fill="none" xmlns="http://www.w3.org/2000/svg">
<path opacity="0.4" d="M14.1667 15.3587H10.8334L7.12507 17.8254C6.57507 18.1921 5.83341 17.8004 5.83341 17.1337V15.3587C3.33341 15.3587 1.66675 13.6921 1.66675 11.1921V6.19206C1.66675 3.69206 3.33341 2.02539 5.83341 2.02539H14.1667C16.6667 2.02539 18.3334 3.69206 18.3334 6.19206V11.1921C18.3334 13.6921 16.6667 15.3587 14.1667 15.3587Z" fill="black"/>
<path d="M10 10.0918C9.65834 10.0918 9.37501 9.80846 9.37501 9.4668V9.29183C9.37501 8.32516 10.0833 7.85015 10.35 7.66682C10.6583 7.45849 10.7583 7.31683 10.7583 7.10016C10.7583 6.68349 10.4167 6.3418 10 6.3418C9.58334 6.3418 9.2417 6.68349 9.2417 7.10016C9.2417 7.44183 8.95837 7.72516 8.6167 7.72516C8.27503 7.72516 7.9917 7.44183 7.9917 7.10016C7.9917 5.99183 8.89168 5.0918 10 5.0918C11.1083 5.0918 12.0083 5.99183 12.0083 7.10016C12.0083 8.05016 11.3084 8.52514 11.05 8.70014C10.725 8.91681 10.625 9.0585 10.625 9.29183V9.4668C10.625 9.8168 10.3417 10.0918 10 10.0918Z" fill="black"/>
<path d="M10 12.167C9.65 12.167 9.375 11.8837 9.375 11.542C9.375 11.2003 9.65833 10.917 10 10.917C10.3417 10.917 10.625 11.2003 10.625 11.542C10.625 11.8837 10.35 12.167 10 12.167Z" fill="black"/>
</svg>
