<svg width="25" height="24" viewBox="0 0 25 24" fill="none" xmlns="http://www.w3.org/2000/svg">
<path d="M9.24995 19.0004C9.24995 19.8404 9.37995 20.6604 9.61995 21.4204C5.77995 20.0904 2.87995 16.5604 2.57995 12.4304C2.27995 8.04036 4.80995 3.94036 8.89995 2.22036C9.95995 1.78036 10.5 2.10036 10.73 2.33036C10.95 2.55036 11.26 3.08036 10.82 4.09036C10.37 5.13036 10.15 6.23036 10.15 7.37036C10.16 9.41036 10.96 11.3004 12.26 12.7504C10.43 14.2104 9.24995 16.4704 9.24995 19.0004Z" fill="#9D9E9F"/>
<path opacity="0.4" d="M21.46 17.72C19.48 20.41 16.34 21.99 12.99 21.99C12.83 21.99 12.67 21.98 12.51 21.97C11.51 21.93 10.54 21.74 9.62 21.42C9.38 20.66 9.25 19.84 9.25 19C9.25 16.47 10.43 14.21 12.26 12.75C13.73 14.4 15.84 15.47 18.17 15.57C18.8 15.6 19.43 15.55 20.05 15.44C21.17 15.24 21.62 15.66 21.78 15.93C21.95 16.2 22.13 16.79 21.46 17.72Z" fill="#9D9E9F"/>
</svg>
