<svg width="32" height="32" viewBox="0 0 32 32" fill="none" xmlns="http://www.w3.org/2000/svg">
<path d="M27.2 11.1992C29.851 11.1992 32 13.3483 32 15.9992C32 18.6502 29.851 20.7992 27.2 20.7992L4.8 20.7992C2.14903 20.7992 -1.15877e-07 18.6502 0 15.9992C1.15877e-07 13.3483 2.14903 11.1992 4.8 11.1992L27.2 11.1992Z" fill="#94CFFF"/>
<path d="M11.2002 4.8C11.2002 2.14903 13.3492 0 16.0002 0C18.6512 0 20.8002 2.14903 20.8002 4.8V27.2C20.8002 29.851 18.6512 32 16.0002 32C13.3492 32 11.2002 29.851 11.2002 27.2V4.8Z" fill="#418CFF"/>
<path d="M11.2002 4.8C11.2002 2.14903 13.3492 0 16.0002 0C18.6512 0 20.8002 2.14903 20.8002 4.8V27.2C20.8002 29.851 18.6512 32 16.0002 32C13.3492 32 11.2002 29.851 11.2002 27.2V4.8Z" fill="#7094F4" style="mix-blend-mode:screen"/>
<path fill-rule="evenodd" clip-rule="evenodd" d="M27.3148 27.3153C29.1894 25.4407 29.1894 22.4015 27.3148 20.5269L22.7892 16.0013L27.3148 11.4756C29.1894 9.60105 29.1894 6.56176 27.3148 4.68718C25.4403 2.81261 22.401 2.81261 20.5264 4.68718L16.0008 9.21281L11.4751 4.68718C9.60056 2.81261 6.56127 2.81261 4.68669 4.68718C2.81212 6.56176 2.81212 9.60105 4.68669 11.4756L9.21232 16.0013L4.68669 20.5269C2.81212 22.4015 2.81212 25.4407 4.68669 27.3153C6.56127 29.1899 9.60056 29.1899 11.4751 27.3153L16.0008 22.7897L20.5264 27.3153C22.401 29.1899 25.4403 29.1899 27.3148 27.3153Z" fill="#418CFF"/>
<path fill-rule="evenodd" clip-rule="evenodd" d="M27.3148 27.3153C29.1894 25.4407 29.1894 22.4015 27.3148 20.5269L22.7892 16.0013L27.3148 11.4756C29.1894 9.60105 29.1894 6.56176 27.3148 4.68718C25.4403 2.81261 22.401 2.81261 20.5264 4.68718L16.0008 9.21281L11.4751 4.68718C9.60056 2.81261 6.56127 2.81261 4.68669 4.68718C2.81212 6.56176 2.81212 9.60105 4.68669 11.4756L9.21232 16.0013L4.68669 20.5269C2.81212 22.4015 2.81212 25.4407 4.68669 27.3153C6.56127 29.1899 9.60056 29.1899 11.4751 27.3153L16.0008 22.7897L20.5264 27.3153C22.401 29.1899 25.4403 29.1899 27.3148 27.3153Z" fill="#418CFF" style="mix-blend-mode:overlay"/>
<path fill-rule="evenodd" clip-rule="evenodd" d="M16.0001 8.35162C15.6466 8.35162 15.3601 8.63816 15.3601 8.99162V13.8365C15.3601 14.0303 15.3601 14.1273 15.3218 14.1722C15.2885 14.2111 15.2386 14.2318 15.1876 14.2278C15.1287 14.2231 15.0602 14.1546 14.9231 14.0175L8.98562 8.08003C8.73568 7.8301 8.33046 7.8301 8.08052 8.08003C7.83058 8.32997 7.83058 8.73519 8.08052 8.98513L14.018 14.9226C14.1551 15.0597 14.2236 15.1282 14.2282 15.1871C14.2323 15.2381 14.2116 15.288 14.1727 15.3213C14.1278 15.3596 14.0308 15.3596 13.837 15.3596H9.04011C8.68665 15.3596 8.40011 15.6462 8.40011 15.9996C8.40011 16.3531 8.68665 16.6396 9.04011 16.6396H13.837C14.0308 16.6396 14.1278 16.6396 14.1727 16.678C14.2116 16.7112 14.2323 16.7611 14.2283 16.8122C14.2236 16.871 14.1551 16.9396 14.018 17.0766L8.08052 23.0141C7.83058 23.2641 7.83058 23.6693 8.08052 23.9192C8.33045 24.1692 8.73568 24.1692 8.98561 23.9192L14.9231 17.9817C15.0602 17.8447 15.1287 17.7761 15.1876 17.7715C15.2386 17.7675 15.2885 17.7881 15.3218 17.8271C15.3601 17.872 15.3601 17.9689 15.3601 18.1628V23.0076C15.3601 23.3611 15.6466 23.6476 16.0001 23.6476C16.3536 23.6476 16.6401 23.3611 16.6401 23.0076V18.1628C16.6401 17.9689 16.6401 17.872 16.6784 17.8271C16.7117 17.7881 16.7616 17.7675 16.8127 17.7715C16.8715 17.7761 16.9401 17.8447 17.0771 17.9817L23.0146 23.9192C23.2646 24.1692 23.6698 24.1692 23.9197 23.9192C24.1696 23.6693 24.1696 23.2641 23.9197 23.0141L17.9822 17.0766C17.8451 16.9396 17.7766 16.871 17.772 16.8122C17.768 16.7611 17.7886 16.7112 17.8276 16.678C17.8725 16.6396 17.9694 16.6396 18.1632 16.6396H22.9601C23.3136 16.6396 23.6001 16.3531 23.6001 15.9996C23.6001 15.6462 23.3136 15.3596 22.9601 15.3596H18.1633C17.9694 15.3596 17.8725 15.3596 17.8276 15.3213C17.7886 15.288 17.768 15.2381 17.772 15.1871C17.7766 15.1282 17.8452 15.0597 17.9822 14.9226L23.9197 8.98513C24.1696 8.73519 24.1696 8.32997 23.9197 8.08003C23.6698 7.83009 23.2646 7.83009 23.0146 8.08003L17.0771 14.0175C16.9401 14.1546 16.8715 14.2231 16.8127 14.2278C16.7616 14.2318 16.7117 14.2111 16.6784 14.1722C16.6401 14.1273 16.6401 14.0304 16.6401 13.8365V8.99162C16.6401 8.63816 16.3536 8.35162 16.0001 8.35162Z" fill="#F3F4F7"/>
</svg>
