<svg width="20" height="20" viewBox="0 0 20 20" fill="none" xmlns="http://www.w3.org/2000/svg">
<path opacity="0.4" d="M4.78338 13.3337C4.87505 12.9253 4.70838 12.342 4.41671 12.0503L2.39171 10.0253C1.75838 9.39199 1.50838 8.71699 1.69171 8.13366C1.88338 7.55033 2.47505 7.15033 3.35838 7.00033L5.95838 6.56699C6.33338 6.50033 6.79171 6.16699 6.96671 5.82533L8.40005 2.95033C8.81671 2.12533 9.38338 1.66699 10 1.66699C10.6167 1.66699 11.1834 2.12533 11.6 2.95033L13.0334 5.82533C13.1417 6.04199 13.3667 6.25033 13.6084 6.39199L4.63338 15.367C4.51671 15.4837 4.31671 15.3753 4.35005 15.2087L4.78338 13.3337Z" fill="#90AEFF"/>
<path d="M15.5833 12.0496C15.2833 12.3496 15.1166 12.9246 15.2166 13.3329L15.7916 15.8413C16.0333 16.8829 15.8833 17.6663 15.3666 18.0413C15.1583 18.1913 14.9083 18.2663 14.6166 18.2663C14.1916 18.2663 13.6916 18.1079 13.1416 17.7829L10.6999 16.3329C10.3166 16.1079 9.68325 16.1079 9.29992 16.3329L6.85825 17.7829C5.93325 18.3246 5.14159 18.4163 4.63325 18.0413C4.44159 17.8996 4.29992 17.7079 4.20825 17.4579L14.3416 7.32459C14.7249 6.94126 15.2666 6.76626 15.7916 6.85792L16.6333 6.99959C17.5166 7.14959 18.1083 7.54959 18.2999 8.13292C18.4833 8.71626 18.2333 9.39126 17.5999 10.0246L15.5833 12.0496Z" fill="#90AEFF"/>
</svg>
