<svg width="15" height="16" viewBox="0 0 15 16" fill="none" xmlns="http://www.w3.org/2000/svg">
<path d="M7.5 14.5225C10.9518 14.5225 13.75 11.7242 13.75 8.27246C13.75 4.82068 10.9518 2.02246 7.5 2.02246C4.04822 2.02246 1.25 4.82068 1.25 8.27246C1.25 11.7242 4.04822 14.5225 7.5 14.5225Z" fill="#31B776"/>
<path d="M6.61265 10.51C6.48765 10.51 6.3689 10.46 6.2814 10.3725L4.51265 8.60371C4.3314 8.42246 4.3314 8.12246 4.51265 7.94121C4.6939 7.75996 4.9939 7.75996 5.17515 7.94121L6.61265 9.37871L9.82515 6.16621C10.0064 5.98496 10.3064 5.98496 10.4876 6.16621C10.6689 6.34746 10.6689 6.64746 10.4876 6.82871L6.9439 10.3725C6.8564 10.46 6.73765 10.51 6.61265 10.51Z" fill="white"/>
</svg>
